PathFileType	4	(X/Y/Z)	/Users/itak/Documents/Research/Walk-IL/dataset/trc/00442_00167.trc
DataRate	CameraRate	NumFrames	NumMarkers	Units	OrigDataRate	OrigDataStartFrame	OrigNumFrames
100.000000	100.000000	4	53	mm	100.000000	330	529
Frame#	Time	RPSI			LPSI			L3			STRN			T10			C7			CLAV			RBAK			LBAK			LSHO			LUPA			LAEL			LAOL			LWTS			LWPS			LFRA			LIFD			LHPS			LHTS			RSHO			RUPA			RAEL			RAOL			RWTS			RWPS			RFRA			RIFD			RHTS			RHPS			RBHD			LFHD			RFHD			LBHD			LHIP			RHIP			RASI			LASI			LKNE			LTHI			LANK			LTIP			LTOE			LMT1			LMT5			LHEE			RKNE			RTHI			RANK			RTIP			RTOE			RMT1			RMT5			RHEE			
		X1	Y1	Z1	X2	Y2	Z2	X3	Y3	Z3	X4	Y4	Z4	X5	Y5	Z5	X6	Y6	Z6	X7	Y7	Z7	X8	Y8	Z8	X9	Y9	Z9	X10	Y10	Z10	X11	Y11	Z11	X12	Y12	Z12	X13	Y13	Z13	X14	Y14	Z14	X15	Y15	Z15	X16	Y16	Z16	X17	Y17	Z17	X18	Y18	Z18	X19	Y19	Z19	X20	Y20	Z20	X21	Y21	Z21	X22	Y22	Z22	X23	Y23	Z23	X24	Y24	Z24	X25	Y25	Z25	X26	Y26	Z26	X27	Y27	Z27	X28	Y28	Z28	X29	Y29	Z29	X30	Y30	Z30	X31	Y31	Z31	X32	Y32	Z32	X33	Y33	Z33	X34	Y34	Z34	X35	Y35	Z35	X36	Y36	Z36	X37	Y37	Z37	X38	Y38	Z38	X39	Y39	Z39	X40	Y40	Z40	X41	Y41	Z41	X42	Y42	Z42	X43	Y43	Z43	X44	Y44	Z44	X45	Y45	Z45	X46	Y46	Z46	X47	Y47	Z47	X48	Y48	Z48	X49	Y49	Z49	X50	Y50	Z50	X51	Y51	Z51	X52	Y52	Z52	X53	Y53	Z53	

331	3.3	64.68476867675781	929.9930419921875	374.6520385742188	139.9602813720703	942.7412719726562	255.4905090332031	111.5294570922852	1035.369506835938	321.2610473632812	337.4414672851562	1225.816650390625	479.5567321777344	110.0185546875	1159.217529296875	304.1620788574219	157.6770172119141	1425.182983398438	356.1137084960938	308.5866394042969	1340.74462890625	459.7438354492188	50.22628021240234	1305.951416015625	384.3545532226562	196.4419403076172	1381.960815429688	256.1233520507812	323.8260803222656	1406.3623046875	265.729248046875	401.0276184082031	1302.578247070312	186.9439392089844	503.6332397460938	1112.673950195312	189.4325256347656	413.9742431640625	1061.380004882812	179.8590393066406	597.000732421875	960.3485107421875	318.1049499511719	613.8075561523438	932.59423828125	251.8192901611328	554.9381103515625	1042.840942382812	214.7169494628906	674.4921264648438	817.5195922851562	360.49658203125	651.3773803710938	865.872314453125	277.6502990722656	649.7169799804688	892.0717163085938	343.8201599121094	109.1317977905273	1391.900512695312	522.16650390625	42.15219116210938	1333.53662109375	564.289794921875	-21.85594177246094	1051.142822265625	594.0845947265625	-36.81267929077148	1037.977416992188	528.8717041015625	76.73284149169922	844.036376953125	617.3307495117188	-11.53593444824219	831.2847900390625	618.6823120117188	-28.1402702331543	992.4653930664062	602.3052978515625	66.47158050537109	684.6386108398438	613.8399047851562	76.64692687988281	742.7490234375	629.97265625	0.4125690162181854	743.28564453125	622.6732788085938	178.3445739746094	1619.023681640625	488.5617065429688	379.44921875	1629.120361328125	440.9765625	303.7198791503906	1627.537719726562	547.2364501953125	269.2358703613281	1627.057373046875	334.5680236816406	310.9132080078125	839.201171875	221.0258178710938	105.2961959838867	835.161865234375	565.3648681640625	217.8655548095703	884.8114013671875	554.0285034179688	358.4523010253906	872.8176879882812	339.7090454101562	228.3310546875	420.1877136230469	250.7720184326172	285.6341552734375	569.1674194335938	248.1065521240234	85.32258605957031	31.33548545837402	194.7610931396484	192.4684753417969	268.4563598632812	232.5865783691406	208.0846862792969	41.26734924316406	393.6728820800781	134.9522399902344	48.21942520141602	366.2796020507812	209.4005737304688	37.55134963989258	279.362548828125	12.98966693878174	37.75973892211914	195.6384429931641	260.6257934570312	468.2723388671875	627.990234375	164.9326477050781	715.1882934570312	616.83203125	352.8235778808594	42.9036979675293	676.1790161132812	287.407470703125	330.4386291503906	662.7037353515625	530.5174560546875	128.0087738037109	754.4463500976562	508.2331848144531	108.8616943359375	688.3901977539062	442.1827392578125	74.7205810546875	763.9799194335938	328.5349731445312	25.13529205322266	600.5816040039062	
332	3.31	74.36158752441406	926.7553100585938	382.5674133300781	148.7931976318359	940.3388061523438	262.9707946777344	120.6270446777344	1031.88671875	328.3056640625	346.8419799804688	1222.756591796875	486.003173828125	118.9195327758789	1155.748779296875	310.9130859375	166.5871124267578	1421.758422851562	362.5802917480469	317.7775268554688	1337.6630859375	466.248291015625	59.40676498413086	1302.167602539062	390.9654235839844	205.2812652587891	1378.65234375	262.5269470214844	332.6117553710938	1403.265991210938	272.2232055664062	410.3441772460938	1299.823974609375	193.713623046875	514.643798828125	1111.150390625	197.0334014892578	425.6678466796875	1058.728637695312	187.0583953857422	608.7613525390625	961.322265625	327.8435668945312	626.6827392578125	933.2383422851562	261.9753723144531	566.6118774414062	1042.2333984375	223.3110504150391	687.9771118164062	820.1583251953125	372.3896179199219	665.0595703125	867.3668823242188	288.8207397460938	662.2752075195312	894.1710205078125	354.7655639648438	118.052848815918	1388.43603515625	528.6427001953125	51.38935470581055	1329.828735351562	570.7127075195312	-11.6707649230957	1047.425659179688	601.5400390625	-26.60044097900391	1034.038208007812	536.381103515625	87.01014709472656	840.5001220703125	625.4951782226562	-1.316710710525513	827.751708984375	626.7583618164062	-17.87161827087402	988.7634887695312	609.8812866210938	76.6993408203125	681.1051025390625	622.5316772460938	86.8797607421875	739.2384033203125	638.4898681640625	10.69955539703369	739.775634765625	631.0296630859375	186.7552642822266	1615.616333007812	495.1953125	387.9300231933594	1626.094848632812	447.9663696289062	312.0122375488281	1624.198364257812	554.1493530273438	277.9549255371094	1624.129150390625	341.3180541992188	319.273681640625	837.3170166015625	226.7292175292969	116.1375503540039	831.1668701171875	572.5863037109375	228.8165740966797	881.2103881835938	561.2158203125	367.8994750976562	870.0729370117188	345.4842224121094	233.188232421875	418.8777160644531	253.9547271728516	291.9350891113281	567.4495239257812	252.3306732177734	85.08118438720703	31.86462593078613	195.2001342773438	195.2025604248047	267.6240539550781	234.45361328125	208.322265625	41.03267288208008	393.841064453125	135.1830444335938	48.23699951171875	366.4441528320312	209.5000152587891	37.45591354370117	279.2941284179688	12.70669651031494	38.83959197998047	196.2581024169922	271.4413452148438	464.0294799804688	633.028076171875	175.0098724365234	710.415283203125	622.9595336914062	380.8866577148438	43.78575134277344	693.6106567382812	302.5858764648438	328.8668823242188	671.3223876953125	554.8484497070312	138.1529846191406	769.77685546875	533.2655029296875	116.6936874389648	704.2291870117188	469.0912170410156	80.98347473144531	780.684326171875	357.3692626953125	23.57563591003418	618.2693481445312	
333	3.32	84.0831298828125	923.415283203125	390.5186462402344	157.7103576660156	937.8189086914062	270.5172424316406	129.7846832275391	1028.31884765625	335.4516906738281	356.3399658203125	1219.606079101562	492.6195678710938	127.8444442749023	1152.222778320312	317.8393249511719	175.5321502685547	1418.282104492188	369.2435607910156	327.0545043945312	1334.493286132812	472.9222717285156	68.62863159179688	1298.328247070312	397.7873229980469	214.1417694091797	1375.277587890625	269.1131286621094	341.4618835449219	1400.05126953125	278.853759765625	419.5965881347656	1296.864135742188	200.5592956542969	525.4277954101562	1109.356811523438	204.6111145019531	437.0921020507812	1055.90576171875	194.2452545166016	620.1117553710938	961.8577880859375	337.4151000976562	639.1281127929688	933.5112915039062	271.9505920410156	577.9710693359375	1041.297241210938	231.8235931396484	700.8756713867188	822.2954711914062	383.9853210449219	678.2149047851562	868.4417114257812	299.748291015625	674.32958984375	895.776611328125	365.4745788574219	127.0511932373047	1384.885375976562	535.3333129882812	60.70635986328125	1326.002197265625	577.352294921875	-1.388591647148132	1043.58544921875	609.14794921875	-16.2704029083252	1030.004028320312	544.030029296875	97.31239318847656	836.835693359375	633.7628784179688	8.945413589477539	824.1073608398438	634.9066772460938	-7.522915363311768	984.9390869140625	617.5885620117188	86.93961334228516	677.4522094726562	631.3567504882812	97.12149047851562	735.6034545898438	647.1251220703125	21.01519012451172	736.16162109375	639.4603271484375	195.2361145019531	1612.220703125	501.9154052734375	396.4547424316406	1623.055908203125	455.014404296875	320.3680114746094	1620.893920898438	561.1257934570312	286.7140197753906	1621.15478515625	348.1415710449219	327.820556640625	835.3114013671875	232.5722198486328	126.9778366088867	827.162353515625	579.8980102539062	239.7724609375	877.5477905273438	568.3738403320312	377.4419250488281	867.2501831054688	351.3396606445312	238.4540252685547	417.4697875976562	257.427978515625	298.5956115722656	565.6344604492188	256.8484802246094	84.84054565429688	32.44569396972656	195.6399383544922	198.201171875	266.7367248535156	236.4988861083984	208.5547790527344	40.78512573242188	394.0365905761719	135.4238128662109	48.27447509765625	366.6197204589844	209.5745544433594	37.36280822753906	279.2374877929688	12.44839477539062	40.11268997192383	196.8583068847656	282.4419860839844	460.0118408203125	638.5582885742188	185.3123779296875	705.8004150390625	629.3062744140625	407.2586669921875	44.82308959960938	709.2496948242188	317.2098388671875	327.3309020996094	679.6286010742188	577.3702392578125	147.55126953125	783.65185546875	556.5338745117188	124.1834487915039	718.5645141601562	494.2048950195312	86.70365142822266	795.701904296875	384.5295715332031	22.67946243286133	634.1099853515625	
334	3.33	93.83815765380859	920.0198364257812	398.4846801757812	166.7258911132812	935.192138671875	278.1263427734375	139.0008087158203	1024.720825195312	342.7084655761719	365.9429626464844	1216.41259765625	499.4144287109375	136.8023986816406	1148.694213867188	324.9594116210938	184.5190887451172	1414.802490234375	376.1236877441406	336.423583984375	1331.2822265625	479.7755126953125	77.88700103759766	1294.494140625	404.8362731933594	223.0397796630859	1371.888671875	275.8961486816406	350.3914184570312	1396.766479492188	285.6299438476562	428.7824096679688	1293.73291015625	207.4826507568359	535.9673461914062	1107.307495117188	212.1505737304688	448.2127075195312	1052.93212890625	201.4307403564453	631.0599975585938	961.9590454101562	346.7920837402344	651.1311645507812	933.401123046875	281.7156982421875	589.0031127929688	1040.036499023438	240.2325439453125	713.1880493164062	823.9170532226562	395.2541198730469	690.8289794921875	869.0791015625	310.4024353027344	685.8885498046875	896.8811645507812	375.9098205566406	136.1428833007812	1381.29345703125	542.2539672851562	70.10960388183594	1322.102783203125	584.2281494140625	8.990389823913574	1039.666870117188	616.907470703125	-5.820032119750977	1025.923461914062	551.8147583007812	107.6400451660156	833.0850219726562	642.1206665039062	19.26227188110352	820.3990478515625	643.107666015625	2.900388479232788	981.038330078125	625.4251708984375	97.20271301269531	673.7198486328125	640.2932739257812	107.3758926391602	731.8880004882812	655.8626098632812	31.36282348632812	732.4872436523438	647.9532470703125	203.7982788085938	1608.887084960938	508.7357788085938	405.0348205566406	1620.048217773438	462.1305541992188	328.8069458007812	1617.67333984375	568.1740112304688	295.5100402832031	1618.169799804688	355.0627746582031	336.5677795410156	833.1929321289062	238.5868530273438	137.7897033691406	823.2379150390625	587.3129272460938	250.6911468505859	873.90283203125	575.4935913085938	387.066650390625	864.3673706054688	357.3042907714844	244.1277313232422	415.9630126953125	261.18212890625	305.6286926269531	563.7281494140625	261.651611328125	84.65108489990234	33.11769866943359	196.0496978759766	201.4917602539062	265.8114013671875	238.7150726318359	208.7682952880859	40.5404167175293	394.249267578125	135.6803283691406	48.34492492675781	366.7882385253906	209.6418151855469	37.26847839355469	279.1947631835938	12.26550769805908	41.630859375	197.3835296630859	293.7793273925781	456.3306884765625	644.626220703125	195.8997955322266	701.4794311523438	635.93798828125	431.5929565429688	45.67802047729492	722.9896240234375	331.3953247070312	325.7735290527344	687.6626586914062	598.0189819335938	155.6275482177734	795.984130859375	577.9020385742188	130.7643585205078	731.2899169921875	517.3052978515625	91.44654846191406	808.9390869140625	409.5747985839844	22.12614440917969	647.9904174804688	
